<?xml version="1.0" encoding="UTF-8" standalone="no"?>
<!DOCTYPE svg PUBLIC "-//W3C//DTD SVG 1.1//EN"
 "http://www.w3.org/Graphics/SVG/1.1/DTD/svg11.dtd">
<!-- Generated by graphviz version 2.26.0 (20091210.2329)
 -->
<!-- Title: Openops Pages: 1 -->
<svg width="952pt" height="324pt"
 viewBox="0.00 0.00 951.60 323.60" xmlns="http://www.w3.org/2000/svg" xmlns:xlink="http://www.w3.org/1999/xlink">
<g id="graph1" class="graph" transform="scale(1 1) rotate(0) translate(28.8 294.8)">
<title>Openops</title>
<polygon fill="white" stroke="white" points="-28.8,29.8 -28.8,-294.8 923.8,-294.8 923.8,29.8 -28.8,29.8"/>
<text text-anchor="middle" x="447" y="-250.3" font-family="Arial Bold" font-size="13.00">Openops domain model</text>
<!-- m_EbsVolume -->
<g id="node1" class="node"><title>m_EbsVolume</title>
<polyline fill="none" stroke="black" points="558.5,-161 679.5,-161 "/>
<path fill="none" stroke="black" d="M679.5,-161C685.5,-161 691.5,-167 691.5,-173"/>
<polyline fill="none" stroke="black" points="691.5,-173 691.5,-185 "/>
<path fill="none" stroke="black" d="M691.5,-185C691.5,-191 685.5,-197 679.5,-197"/>
<polyline fill="none" stroke="black" points="679.5,-197 558.5,-197 "/>
<path fill="none" stroke="black" d="M558.5,-197C552.5,-197 546.5,-191 546.5,-185"/>
<polyline fill="none" stroke="black" points="546.5,-185 546.5,-173 "/>
<path fill="none" stroke="black" d="M546.5,-173C546.5,-167 552.5,-161 558.5,-161"/>
<text text-anchor="start" x="587" y="-175.933" font-family="Arial Bold" font-size="11.00">EbsVolume</text>
</g>
<!-- m_InstanceBlockDeviceMapping -->
<g id="node5" class="node"><title>m_InstanceBlockDeviceMapping</title>
<polyline fill="none" stroke="black" points="740,-161 882,-161 "/>
<path fill="none" stroke="black" d="M882,-161C888,-161 894,-167 894,-173"/>
<polyline fill="none" stroke="black" points="894,-173 894,-185 "/>
<path fill="none" stroke="black" d="M894,-185C894,-191 888,-197 882,-197"/>
<polyline fill="none" stroke="black" points="882,-197 740,-197 "/>
<path fill="none" stroke="black" d="M740,-197C734,-197 728,-191 728,-185"/>
<polyline fill="none" stroke="black" points="728,-185 728,-173 "/>
<path fill="none" stroke="black" d="M728,-173C728,-167 734,-161 740,-161"/>
<text text-anchor="start" x="733.5" y="-175.933" font-family="Arial Bold" font-size="11.00">InstanceBlockDeviceMapping</text>
</g>
<!-- m_EbsVolume&#45;&gt;m_InstanceBlockDeviceMapping -->
<g id="edge2" class="edge"><title>m_EbsVolume&#45;&gt;m_InstanceBlockDeviceMapping</title>
<path fill="none" stroke="black" d="M691.587,-179C700.428,-179 709.55,-179 718.63,-179"/>
<polygon fill="black" stroke="black" points="718.683,-182.15 727.683,-179 718.682,-175.85 718.683,-182.15"/>
</g>
<!-- m_Environment -->
<g id="node2" class="node"><title>m_Environment</title>
<polyline fill="none" stroke="black" points="194.5,-189 315.5,-189 "/>
<path fill="none" stroke="black" d="M315.5,-189C321.5,-189 327.5,-195 327.5,-201"/>
<polyline fill="none" stroke="black" points="327.5,-201 327.5,-213 "/>
<path fill="none" stroke="black" d="M327.5,-213C327.5,-219 321.5,-225 315.5,-225"/>
<polyline fill="none" stroke="black" points="315.5,-225 194.5,-225 "/>
<path fill="none" stroke="black" d="M194.5,-225C188.5,-225 182.5,-219 182.5,-213"/>
<polyline fill="none" stroke="black" points="182.5,-213 182.5,-201 "/>
<path fill="none" stroke="black" d="M182.5,-201C182.5,-195 188.5,-189 194.5,-189"/>
<text text-anchor="start" x="219.5" y="-203.933" font-family="Arial Bold" font-size="11.00">Environment</text>
</g>
<!-- m_Host -->
<g id="node3" class="node"><title>m_Host</title>
<polyline fill="none" stroke="black" points="376.5,-189 497.5,-189 "/>
<path fill="none" stroke="black" d="M497.5,-189C503.5,-189 509.5,-195 509.5,-201"/>
<polyline fill="none" stroke="black" points="509.5,-201 509.5,-213 "/>
<path fill="none" stroke="black" d="M509.5,-213C509.5,-219 503.5,-225 497.5,-225"/>
<polyline fill="none" stroke="black" points="497.5,-225 376.5,-225 "/>
<path fill="none" stroke="black" d="M376.5,-225C370.5,-225 364.5,-219 364.5,-213"/>
<polyline fill="none" stroke="black" points="364.5,-213 364.5,-201 "/>
<path fill="none" stroke="black" d="M364.5,-201C364.5,-195 370.5,-189 376.5,-189"/>
<text text-anchor="start" x="423" y="-203.933" font-family="Arial Bold" font-size="11.00">Host</text>
</g>
<!-- m_Environment&#45;&gt;m_Host -->
<g id="edge4" class="edge"><title>m_Environment&#45;&gt;m_Host</title>
<path fill="none" stroke="black" d="M327.716,-207C336.775,-207 346.087,-207 355.272,-207"/>
<polygon fill="black" stroke="black" points="355.4,-210.15 364.4,-207 355.4,-203.85 355.4,-210.15"/>
</g>
<!-- m_Instance -->
<g id="node4" class="node"><title>m_Instance</title>
<polyline fill="none" stroke="black" points="558.5,-96 679.5,-96 "/>
<path fill="none" stroke="black" d="M679.5,-96C685.5,-96 691.5,-102 691.5,-108"/>
<polyline fill="none" stroke="black" points="691.5,-108 691.5,-120 "/>
<path fill="none" stroke="black" d="M691.5,-120C691.5,-126 685.5,-132 679.5,-132"/>
<polyline fill="none" stroke="black" points="679.5,-132 558.5,-132 "/>
<path fill="none" stroke="black" d="M558.5,-132C552.5,-132 546.5,-126 546.5,-120"/>
<polyline fill="none" stroke="black" points="546.5,-120 546.5,-108 "/>
<path fill="none" stroke="black" d="M546.5,-108C546.5,-102 552.5,-96 558.5,-96"/>
<text text-anchor="start" x="595" y="-110.933" font-family="Arial Bold" font-size="11.00">Instance</text>
</g>
<!-- m_Environment&#45;&gt;m_Instance -->
<g id="edge6" class="edge"><title>m_Environment&#45;&gt;m_Instance</title>
<path fill="none" stroke="black" stroke-dasharray="1,5" d="M314.53,-188.93C330.547,-184.231 347.896,-179.287 364,-175 421.784,-159.617 487.409,-143.96 537.614,-132.359"/>
<polygon fill="black" stroke="black" points="538.423,-135.406 546.485,-130.315 537.008,-129.267 538.423,-135.406"/>
</g>
<!-- m_Host&#45;&gt;m_Instance -->
<g id="edge10" class="edge"><title>m_Host&#45;&gt;m_Instance</title>
<path fill="none" stroke="black" d="M470.092,-188.921C482.604,-182.071 496.967,-174.191 510,-167 526.026,-158.158 529.647,-155.221 546,-147 556.065,-141.94 567.07,-136.778 577.411,-132.086"/>
</g>
<!-- m_Instance&#45;&gt;m_InstanceBlockDeviceMapping -->
<g id="edge14" class="edge"><title>m_Instance&#45;&gt;m_InstanceBlockDeviceMapping</title>
<path fill="none" stroke="black" d="M672.228,-132.02C696.054,-140.086 724.298,-149.648 749.066,-158.033"/>
<polygon fill="black" stroke="black" points="748.134,-161.043 757.669,-160.945 750.154,-155.075 748.134,-161.043"/>
</g>
<!-- m_InstanceTag -->
<g id="node9" class="node"><title>m_InstanceTag</title>
<polyline fill="none" stroke="black" points="750.5,-96 871.5,-96 "/>
<path fill="none" stroke="black" d="M871.5,-96C877.5,-96 883.5,-102 883.5,-108"/>
<polyline fill="none" stroke="black" points="883.5,-108 883.5,-120 "/>
<path fill="none" stroke="black" d="M883.5,-120C883.5,-126 877.5,-132 871.5,-132"/>
<polyline fill="none" stroke="black" points="871.5,-132 750.5,-132 "/>
<path fill="none" stroke="black" d="M750.5,-132C744.5,-132 738.5,-126 738.5,-120"/>
<polyline fill="none" stroke="black" points="738.5,-120 738.5,-108 "/>
<path fill="none" stroke="black" d="M738.5,-108C738.5,-102 744.5,-96 750.5,-96"/>
<text text-anchor="start" x="777.5" y="-110.933" font-family="Arial Bold" font-size="11.00">InstanceTag</text>
</g>
<!-- m_Instance&#45;&gt;m_InstanceTag -->
<g id="edge12" class="edge"><title>m_Instance&#45;&gt;m_InstanceTag</title>
<path fill="none" stroke="black" d="M691.587,-114C703.892,-114 716.744,-114 729.264,-114"/>
<polygon fill="black" stroke="black" points="729.31,-117.15 738.31,-114 729.31,-110.85 729.31,-117.15"/>
</g>
<!-- m_InstanceEni -->
<g id="node6" class="node"><title>m_InstanceEni</title>
<polyline fill="none" stroke="black" points="194.5,-33 315.5,-33 "/>
<path fill="none" stroke="black" d="M315.5,-33C321.5,-33 327.5,-39 327.5,-45"/>
<polyline fill="none" stroke="black" points="327.5,-45 327.5,-57 "/>
<path fill="none" stroke="black" d="M327.5,-57C327.5,-63 321.5,-69 315.5,-69"/>
<polyline fill="none" stroke="black" points="315.5,-69 194.5,-69 "/>
<path fill="none" stroke="black" d="M194.5,-69C188.5,-69 182.5,-63 182.5,-57"/>
<polyline fill="none" stroke="black" points="182.5,-57 182.5,-45 "/>
<path fill="none" stroke="black" d="M182.5,-45C182.5,-39 188.5,-33 194.5,-33"/>
<text text-anchor="start" x="222.5" y="-47.9333" font-family="Arial Bold" font-size="11.00">InstanceEni</text>
</g>
<!-- m_InstanceEniMapping -->
<g id="node7" class="node"><title>m_InstanceEniMapping</title>
<polyline fill="none" stroke="black" points="376.5,-65 497.5,-65 "/>
<path fill="none" stroke="black" d="M497.5,-65C503.5,-65 509.5,-71 509.5,-77"/>
<polyline fill="none" stroke="black" points="509.5,-77 509.5,-89 "/>
<path fill="none" stroke="black" d="M509.5,-89C509.5,-95 503.5,-101 497.5,-101"/>
<polyline fill="none" stroke="black" points="497.5,-101 376.5,-101 "/>
<path fill="none" stroke="black" d="M376.5,-101C370.5,-101 364.5,-95 364.5,-89"/>
<polyline fill="none" stroke="black" points="364.5,-89 364.5,-77 "/>
<path fill="none" stroke="black" d="M364.5,-77C364.5,-71 370.5,-65 376.5,-65"/>
<text text-anchor="start" x="382" y="-79.9333" font-family="Arial Bold" font-size="11.00">InstanceEniMapping</text>
</g>
<!-- m_InstanceEni&#45;&gt;m_InstanceEniMapping -->
<g id="edge18" class="edge"><title>m_InstanceEni&#45;&gt;m_InstanceEniMapping</title>
<path fill="none" stroke="black" d="M327.716,-63.7852C336.775,-65.3781 346.087,-67.0153 355.272,-68.6302"/>
<polygon fill="black" stroke="black" points="354.99,-71.7789 364.4,-70.2351 356.081,-65.5741 354.99,-71.7789"/>
</g>
<!-- m_InstanceEniTag -->
<g id="node8" class="node"><title>m_InstanceEniTag</title>
<polyline fill="none" stroke="black" points="376.5,-0 497.5,-0 "/>
<path fill="none" stroke="black" d="M497.5,-0C503.5,-0 509.5,-6 509.5,-12"/>
<polyline fill="none" stroke="black" points="509.5,-12 509.5,-24 "/>
<path fill="none" stroke="black" d="M509.5,-24C509.5,-30 503.5,-36 497.5,-36"/>
<polyline fill="none" stroke="black" points="497.5,-36 376.5,-36 "/>
<path fill="none" stroke="black" d="M376.5,-36C370.5,-36 364.5,-30 364.5,-24"/>
<polyline fill="none" stroke="black" points="364.5,-24 364.5,-12 "/>
<path fill="none" stroke="black" d="M364.5,-12C364.5,-6 370.5,-0 376.5,-0"/>
<text text-anchor="start" x="394.5" y="-14.9333" font-family="Arial Bold" font-size="11.00">InstanceEniTag</text>
</g>
<!-- m_InstanceEni&#45;&gt;m_InstanceEniTag -->
<g id="edge22" class="edge"><title>m_InstanceEni&#45;&gt;m_InstanceEniTag</title>
<path fill="none" stroke="black" d="M327.716,-37.8153C336.775,-36.1726 346.087,-34.4842 355.272,-32.8189"/>
<polygon fill="black" stroke="black" points="356.106,-35.869 364.4,-31.1638 354.982,-29.6701 356.106,-35.869"/>
</g>
<!-- m_InstanceEniMapping&#45;&gt;m_Instance -->
<g id="edge20" class="edge"><title>m_InstanceEniMapping&#45;&gt;m_Instance</title>
<path fill="none" stroke="black" d="M509.716,-95.3857C521.795,-97.4432 534.323,-99.577 546.4,-101.634"/>
</g>
<!-- m_Sysid -->
<g id="node10" class="node"><title>m_Sysid</title>
<polyline fill="none" stroke="black" points="12.5,-189 133.5,-189 "/>
<path fill="none" stroke="black" d="M133.5,-189C139.5,-189 145.5,-195 145.5,-201"/>
<polyline fill="none" stroke="black" points="145.5,-201 145.5,-213 "/>
<path fill="none" stroke="black" d="M145.5,-213C145.5,-219 139.5,-225 133.5,-225"/>
<polyline fill="none" stroke="black" points="133.5,-225 12.5,-225 "/>
<path fill="none" stroke="black" d="M12.5,-225C6.5,-225 0.5,-219 0.5,-213"/>
<polyline fill="none" stroke="black" points="0.5,-213 0.5,-201 "/>
<path fill="none" stroke="black" d="M0.5,-201C0.5,-195 6.5,-189 12.5,-189"/>
<text text-anchor="start" x="56.5" y="-203.933" font-family="Arial Bold" font-size="11.00">Sysid</text>
</g>
<!-- m_Sysid&#45;&gt;m_Environment -->
<g id="edge26" class="edge"><title>m_Sysid&#45;&gt;m_Environment</title>
<path fill="none" stroke="black" d="M145.716,-207C154.775,-207 164.087,-207 173.272,-207"/>
<polygon fill="black" stroke="black" points="173.4,-210.15 182.4,-207 173.4,-203.85 173.4,-210.15"/>
</g>
<!-- m_Sysid&#45;&gt;m_Host -->
<g id="edge24" class="edge"><title>m_Sysid&#45;&gt;m_Host</title>
<path fill="none" stroke="black" stroke-dasharray="1,5" d="M123.35,-188.96C141.576,-183.303 162.478,-177.806 182,-175 246.229,-165.767 263.771,-165.767 328,-175 344.471,-177.368 361.926,-181.651 377.926,-186.33"/>
<polygon fill="black" stroke="black" points="377.124,-189.378 386.65,-188.96 378.942,-183.346 377.124,-189.378"/>
</g>
</g>
</svg>
