<?xml version="1.0" encoding="UTF-8" standalone="no"?>
<!DOCTYPE svg PUBLIC "-//W3C//DTD SVG 1.1//EN"
 "http://www.w3.org/Graphics/SVG/1.1/DTD/svg11.dtd">
<!-- Generated by graphviz version 2.26.0 (20091210.2329)
 -->
<!-- Title: models_diagram Pages: 1 -->
<svg width="1681pt" height="546pt"
 viewBox="0.00 0.00 1681.00 546.00" xmlns="http://www.w3.org/2000/svg" xmlns:xlink="http://www.w3.org/1999/xlink">
<g id="graph1" class="graph" transform="scale(1 1) rotate(0) translate(4 542)">
<title>models_diagram</title>
<polygon fill="white" stroke="white" points="-4,5 -4,-542 1678,-542 1678,5 -4,5"/>
<!-- _diagram_info -->
<g id="node1" class="node"><title>_diagram_info</title>
<text text-anchor="start" x="101" y="-521.8" font-family="Times Roman,serif" font-size="13.00">Models diagram</text>
<text text-anchor="start" x="101" y="-504.8" font-family="Times Roman,serif" font-size="13.00">Date: Dec 08 2014 &#45; 15:30</text>
<text text-anchor="start" x="101" y="-487.8" font-family="Times Roman,serif" font-size="13.00">Migration version: 20141208172229</text>
<text text-anchor="start" x="101" y="-470.8" font-family="Times Roman,serif" font-size="13.00">Generated by RailRoady 1.2.0</text>
<text text-anchor="start" x="101" y="-453.8" font-family="Times Roman,serif" font-size="13.00">http://railroady.prestonlee.com</text>
</g>
<!-- InstanceTag -->
<g id="node2" class="node"><title>InstanceTag</title>
<ellipse fill="none" stroke="black" cx="465" cy="-167" rx="58.1882" ry="19.0919"/>
<text text-anchor="middle" x="465" y="-163.9" font-family="Times Roman,serif" font-size="14.00">InstanceTag</text>
</g>
<!-- InstanceBlockDeviceMapping -->
<g id="node3" class="node"><title>InstanceBlockDeviceMapping</title>
<ellipse fill="none" stroke="black" cx="153" cy="-167" rx="128.193" ry="19.0919"/>
<text text-anchor="middle" x="153" y="-163.9" font-family="Times Roman,serif" font-size="14.00">InstanceBlockDeviceMapping</text>
</g>
<!-- EbsSnapshot -->
<g id="node21" class="node"><title>EbsSnapshot</title>
<ellipse fill="none" stroke="black" cx="75" cy="-93" rx="60.8112" ry="19.0919"/>
<text text-anchor="middle" x="75" y="-89.9" font-family="Times Roman,serif" font-size="14.00">EbsSnapshot</text>
</g>
<!-- InstanceBlockDeviceMapping&#45;&gt;EbsSnapshot -->
<g id="edge2" class="edge"><title>InstanceBlockDeviceMapping&#45;&gt;EbsSnapshot</title>
<path fill="none" stroke="#c51596" d="M125.622,-141.026C117.845,-133.647 109.388,-125.625 101.654,-118.287"/>
<polygon fill="#c51596" stroke="#c51596" points="125.658,-141.061 129.816,-151.208 129.286,-144.502 132.913,-147.943 132.913,-147.943 132.913,-147.943 129.286,-144.502 136.01,-144.679 125.658,-141.061 125.658,-141.061"/>
<polygon fill="#c51596" stroke="#c51596" points="101.467,-118.109 97.3093,-107.962 97.8394,-114.668 94.2121,-111.227 94.2121,-111.227 94.2121,-111.227 97.8394,-114.668 91.1149,-114.491 101.467,-118.109 101.467,-118.109"/>
</g>
<!-- InstanceEniTag -->
<g id="node4" class="node"><title>InstanceEniTag</title>
<ellipse fill="none" stroke="black" cx="607" cy="-389" rx="70.9184" ry="19.0919"/>
<text text-anchor="middle" x="607" y="-385.9" font-family="Times Roman,serif" font-size="14.00">InstanceEniTag</text>
</g>
<!-- Index -->
<g id="node5" class="node"><title>Index</title>
<ellipse fill="none" stroke="black" cx="714" cy="-491" rx="33.234" ry="19.0919"/>
<text text-anchor="middle" x="714" y="-487.9" font-family="Times Roman,serif" font-size="14.00">Index</text>
</g>
<!-- InstanceEniMapping -->
<g id="node6" class="node"><title>InstanceEniMapping</title>
<ellipse fill="none" stroke="black" cx="857" cy="-491" rx="91.9239" ry="19.0919"/>
<text text-anchor="middle" x="857" y="-487.9" font-family="Times Roman,serif" font-size="14.00">InstanceEniMapping</text>
</g>
<!-- EbsVolume -->
<g id="node7" class="node"><title>EbsVolume</title>
<ellipse fill="none" stroke="black" cx="75" cy="-241" rx="56.7776" ry="19.0919"/>
<text text-anchor="middle" x="75" y="-237.9" font-family="Times Roman,serif" font-size="14.00">EbsVolume</text>
</g>
<!-- EbsVolume&#45;&gt;InstanceBlockDeviceMapping -->
<g id="edge6" class="edge"><title>EbsVolume&#45;&gt;InstanceBlockDeviceMapping</title>
<path fill="none" stroke="#ca00d3" d="M100.335,-216.964C108.477,-209.24 117.529,-200.652 125.799,-192.806"/>
<ellipse fill="none" stroke="#ca00d3" cx="97.1828" cy="-219.955" rx="4.00002" ry="4.00002"/>
<polygon fill="#ca00d3" stroke="#ca00d3" points="125.872,-192.737 136.224,-189.119 129.499,-189.296 133.127,-185.854 133.127,-185.854 133.127,-185.854 129.499,-189.296 130.029,-182.59 125.872,-192.737 125.872,-192.737"/>
</g>
<!-- EbsVolume&#45;&gt;EbsSnapshot -->
<g id="edge4" class="edge"><title>EbsVolume&#45;&gt;EbsSnapshot</title>
<path fill="none" stroke="#145a85" d="M42.0017,-218.759C31.6817,-209.903 21.55,-198.761 16,-186 9.26428,-170.512 9.26428,-163.488 16,-148 21.2442,-135.942 30.5789,-125.33 40.2979,-116.726"/>
<ellipse fill="none" stroke="#145a85" cx="45.3089" cy="-221.449" rx="4.00002" ry="4.00002"/>
<polygon fill="#145a85" stroke="#145a85" points="40.3996,-116.641 50.9728,-113.733 44.2518,-113.454 48.1039,-110.266 48.1039,-110.266 48.1039,-110.266 44.2518,-113.454 45.2351,-106.799 40.3996,-116.641 40.3996,-116.641"/>
</g>
<!-- AwsAz -->
<g id="node8" class="node"><title>AwsAz</title>
<ellipse fill="none" stroke="black" cx="1007" cy="-491" rx="39.8075" ry="19.0919"/>
<text text-anchor="middle" x="1007" y="-487.9" font-family="Times Roman,serif" font-size="14.00">AwsAz</text>
</g>
<!-- Sysid -->
<g id="node9" class="node"><title>Sysid</title>
<ellipse fill="none" stroke="black" cx="500" cy="-491" rx="33.234" ry="19.0919"/>
<text text-anchor="middle" x="500" y="-487.9" font-family="Times Roman,serif" font-size="14.00">Sysid</text>
</g>
<!-- Host -->
<g id="node24" class="node"><title>Host</title>
<ellipse fill="none" stroke="black" cx="477" cy="-389" rx="29.1951" ry="19.0919"/>
<text text-anchor="middle" x="477" y="-385.9" font-family="Times Roman,serif" font-size="14.00">Host</text>
</g>
<!-- Sysid&#45;&gt;Host -->
<g id="edge8" class="edge"><title>Sysid&#45;&gt;Host</title>
<path fill="none" stroke="#1a3e1a" d="M493.83,-463.636C490.646,-449.515 486.762,-432.291 483.528,-417.948"/>
<ellipse fill="none" stroke="#1a3e1a" cx="494.794" cy="-467.913" rx="4.00001" ry="4.00001"/>
<polygon fill="#1a3e1a" stroke="#1a3e1a" points="483.506,-417.854 485.697,-407.11 482.407,-412.977 481.307,-408.099 481.307,-408.099 481.307,-408.099 482.407,-412.977 476.917,-409.089 483.506,-417.854 483.506,-417.854"/>
</g>
<!-- HostState -->
<g id="node10" class="node"><title>HostState</title>
<ellipse fill="none" stroke="black" cx="1114" cy="-491" rx="48.7904" ry="19.0919"/>
<text text-anchor="middle" x="1114" y="-487.9" font-family="Times Roman,serif" font-size="14.00">HostState</text>
</g>
<!-- EbsSnapshotTag -->
<g id="node11" class="node"><title>EbsSnapshotTag</title>
<ellipse fill="none" stroke="black" cx="75" cy="-19" rx="75.1594" ry="19.0919"/>
<text text-anchor="middle" x="75" y="-15.9" font-family="Times Roman,serif" font-size="14.00">EbsSnapshotTag</text>
</g>
<!-- AwsVpc -->
<g id="node12" class="node"><title>AwsVpc</title>
<ellipse fill="none" stroke="black" cx="344" cy="-167" rx="44.7575" ry="19.0919"/>
<text text-anchor="middle" x="344" y="-163.9" font-family="Times Roman,serif" font-size="14.00">AwsVpc</text>
</g>
<!-- AwsSubnet -->
<g id="node15" class="node"><title>AwsSubnet</title>
<ellipse fill="none" stroke="black" cx="344" cy="-93" rx="55.8614" ry="19.0919"/>
<text text-anchor="middle" x="344" y="-89.9" font-family="Times Roman,serif" font-size="14.00">AwsSubnet</text>
</g>
<!-- AwsVpc&#45;&gt;AwsSubnet -->
<g id="edge10" class="edge"><title>AwsVpc&#45;&gt;AwsSubnet</title>
<path fill="none" stroke="#1d3ad0" d="M344,-139.849C344,-134.126 344,-128.064 344,-122.267"/>
<ellipse fill="none" stroke="#1d3ad0" cx="344" cy="-143.943" rx="4" ry="4"/>
<polygon fill="#1d3ad0" stroke="#1d3ad0" points="344,-122.249 348.5,-112.249 344,-117.249 344,-112.249 344,-112.249 344,-112.249 344,-117.249 339.5,-112.249 344,-122.249 344,-122.249"/>
</g>
<!-- EbsVolumeTag -->
<g id="node13" class="node"><title>EbsVolumeTag</title>
<ellipse fill="none" stroke="black" cx="1253" cy="-491" rx="72.1249" ry="19.0919"/>
<text text-anchor="middle" x="1253" y="-487.9" font-family="Times Roman,serif" font-size="14.00">EbsVolumeTag</text>
</g>
<!-- CheckpointFrequency -->
<g id="node14" class="node"><title>CheckpointFrequency</title>
<ellipse fill="none" stroke="black" cx="1439" cy="-491" rx="96.1665" ry="19.0919"/>
<text text-anchor="middle" x="1439" y="-487.9" font-family="Times Roman,serif" font-size="14.00">CheckpointFrequency</text>
</g>
<!-- InstanceEni -->
<g id="node16" class="node"><title>InstanceEni</title>
<ellipse fill="none" stroke="black" cx="607" cy="-491" rx="56.0679" ry="19.0919"/>
<text text-anchor="middle" x="607" y="-487.9" font-family="Times Roman,serif" font-size="14.00">InstanceEni</text>
</g>
<!-- InstanceEni&#45;&gt;InstanceEniTag -->
<g id="edge12" class="edge"><title>InstanceEni&#45;&gt;InstanceEniTag</title>
<path fill="none" stroke="#b85b1e" d="M607,-463.636C607,-449.652 607,-432.625 607,-418.367"/>
<ellipse fill="none" stroke="#b85b1e" cx="607" cy="-467.815" rx="4" ry="4"/>
<polygon fill="#b85b1e" stroke="#b85b1e" points="607,-418.099 611.5,-408.099 607,-413.099 607,-408.099 607,-408.099 607,-408.099 607,-413.099 602.5,-408.099 607,-418.099 607,-418.099"/>
</g>
<!-- Environment -->
<g id="node17" class="node"><title>Environment</title>
<ellipse fill="none" stroke="black" cx="387" cy="-491" rx="62.2254" ry="19.0919"/>
<text text-anchor="middle" x="387" y="-487.9" font-family="Times Roman,serif" font-size="14.00">Environment</text>
</g>
<!-- Environment&#45;&gt;AwsVpc -->
<g id="edge14" class="edge"><title>Environment&#45;&gt;AwsVpc</title>
<path fill="none" stroke="#4974c1" d="M383.109,-461.678C374.938,-400.116 356.079,-258.013 347.901,-196.391"/>
<polygon fill="#4974c1" stroke="#4974c1" points="383.123,-461.79 379.978,-472.295 383.781,-466.746 384.439,-471.703 384.439,-471.703 384.439,-471.703 383.781,-466.746 388.9,-471.111 383.123,-461.79 383.123,-461.79"/>
<polygon fill="#4974c1" stroke="#4974c1" points="347.863,-196.109 351.009,-185.604 347.206,-191.153 346.548,-186.196 346.548,-186.196 346.548,-186.196 347.206,-191.153 342.087,-186.788 347.863,-196.109 347.863,-196.109"/>
</g>
<!-- Instance -->
<g id="node18" class="node"><title>Instance</title>
<ellipse fill="none" stroke="black" cx="441" cy="-241" rx="43.8406" ry="19.0919"/>
<text text-anchor="middle" x="441" y="-237.9" font-family="Times Roman,serif" font-size="14.00">Instance</text>
</g>
<!-- Environment&#45;&gt;Instance -->
<g id="edge18" class="edge"><title>Environment&#45;&gt;Instance</title>
<path fill="none" stroke="#9220bb" d="M393.282,-461.917C403.682,-413.769 424.357,-318.05 434.742,-269.974"/>
<polygon fill="#9220bb" stroke="#9220bb" points="393.259,-462.023 386.749,-470.848 392.203,-466.911 391.148,-471.798 391.148,-471.798 391.148,-471.798 392.203,-466.911 395.546,-472.748 393.259,-462.023 393.259,-462.023"/>
<polygon fill="#9220bb" stroke="#9220bb" points="434.801,-269.7 441.311,-260.875 435.856,-264.812 436.912,-259.925 436.912,-259.925 436.912,-259.925 435.856,-264.812 432.514,-258.975 434.801,-269.7 434.801,-269.7"/>
</g>
<!-- Environment&#45;&gt;Host -->
<g id="edge16" class="edge"><title>Environment&#45;&gt;Host</title>
<path fill="none" stroke="#1307b6" d="M408.901,-466.179C423.049,-450.144 441.377,-429.373 455.454,-413.419"/>
<ellipse fill="none" stroke="#1307b6" cx="406.154" cy="-469.292" rx="4.00002" ry="4.00002"/>
<polygon fill="#1307b6" stroke="#1307b6" points="455.767,-413.064 465.758,-408.543 459.075,-409.315 462.384,-405.565 462.384,-405.565 462.384,-405.565 459.075,-409.315 459.009,-402.588 455.767,-413.064 455.767,-413.064"/>
</g>
<!-- Instance&#45;&gt;InstanceTag -->
<g id="edge20" class="edge"><title>Instance&#45;&gt;InstanceTag</title>
<path fill="none" stroke="#3767af" d="M449.735,-214.066C451.669,-208.102 453.726,-201.762 455.682,-195.73"/>
<ellipse fill="none" stroke="#3767af" cx="448.415" cy="-218.138" rx="4.00001" ry="4.00001"/>
<polygon fill="#3767af" stroke="#3767af" points="455.755,-195.504 463.121,-187.381 457.298,-190.748 458.84,-185.992 458.84,-185.992 458.84,-185.992 457.298,-190.748 454.56,-184.604 455.755,-195.504 455.755,-195.504"/>
</g>
<!-- Instance&#45;&gt;InstanceBlockDeviceMapping -->
<g id="edge26" class="edge"><title>Instance&#45;&gt;InstanceBlockDeviceMapping</title>
<path fill="none" stroke="#e8abd7" d="M395.297,-229.257C350.067,-217.635 280.084,-199.654 226.937,-185.998"/>
<ellipse fill="none" stroke="#e8abd7" cx="399.179" cy="-230.254" rx="4.00001" ry="4.00001"/>
<polygon fill="#e8abd7" stroke="#e8abd7" points="226.905,-185.99 218.339,-179.142 222.062,-184.745 217.219,-183.501 217.219,-183.501 217.219,-183.501 222.062,-184.745 216.1,-187.859 226.905,-185.99 226.905,-185.99"/>
</g>
<!-- Instance&#45;&gt;AwsVpc -->
<g id="edge22" class="edge"><title>Instance&#45;&gt;AwsVpc</title>
<path fill="none" stroke="#c19b21" d="M412.401,-219.182C399.749,-209.53 384.912,-198.211 372.295,-188.586"/>
<ellipse fill="none" stroke="#c19b21" cx="415.809" cy="-221.782" rx="4.00002" ry="4.00002"/>
<ellipse fill="#c19b21" stroke="#c19b21" cx="369.104" cy="-186.151" rx="4.00002" ry="4.00002"/>
</g>
<!-- AwsRegion -->
<g id="node20" class="node"><title>AwsRegion</title>
<ellipse fill="none" stroke="black" cx="635" cy="-167" rx="56.0679" ry="19.0919"/>
<text text-anchor="middle" x="635" y="-163.9" font-family="Times Roman,serif" font-size="14.00">AwsRegion</text>
</g>
<!-- Instance&#45;&gt;AwsRegion -->
<g id="edge24" class="edge"><title>Instance&#45;&gt;AwsRegion</title>
<path fill="none" stroke="#65c969" d="M481.839,-225.422C513.441,-213.368 557.175,-196.686 589.821,-184.233"/>
<ellipse fill="none" stroke="#65c969" cx="478.087" cy="-226.853" rx="4.00001" ry="4.00001"/>
<ellipse fill="#65c969" stroke="#65c969" cx="593.71" cy="-182.75" rx="4.00001" ry="4.00001"/>
</g>
<!-- AwsAccount -->
<g id="node19" class="node"><title>AwsAccount</title>
<ellipse fill="none" stroke="black" cx="545" cy="-315" rx="61.0181" ry="19.0919"/>
<text text-anchor="middle" x="545" y="-311.9" font-family="Times Roman,serif" font-size="14.00">AwsAccount</text>
</g>
<!-- AwsAccount&#45;&gt;AwsVpc -->
<g id="edge28" class="edge"><title>AwsAccount&#45;&gt;AwsVpc</title>
<path fill="none" stroke="#5fd83e" d="M536.329,-288.46C528.329,-267.77 514.55,-239.674 494,-222 491.856,-220.156 431.513,-198.321 388.029,-182.726"/>
<ellipse fill="none" stroke="#5fd83e" cx="537.727" cy="-292.238" rx="4.00001" ry="4.00001"/>
<polygon fill="#5fd83e" stroke="#5fd83e" points="387.898,-182.68 380.002,-175.07 383.191,-180.993 378.484,-179.307 378.484,-179.307 378.484,-179.307 383.191,-180.993 376.966,-183.543 387.898,-182.68 387.898,-182.68"/>
</g>
<!-- AwsAccount&#45;&gt;Instance -->
<g id="edge32" class="edge"><title>AwsAccount&#45;&gt;Instance</title>
<path fill="none" stroke="#305592" d="M513.721,-292.744C500.619,-283.421 485.418,-272.605 472.312,-263.279"/>
<ellipse fill="none" stroke="#305592" cx="517.094" cy="-295.144" rx="4.00002" ry="4.00002"/>
<polygon fill="#305592" stroke="#305592" points="472.193,-263.195 466.654,-253.731 468.119,-260.296 464.045,-257.397 464.045,-257.397 464.045,-257.397 468.119,-260.296 461.436,-261.064 472.193,-263.195 472.193,-263.195"/>
</g>
<!-- AwsAccount&#45;&gt;AwsRegion -->
<g id="edge30" class="edge"><title>AwsAccount&#45;&gt;AwsRegion</title>
<path fill="none" stroke="#a09236" d="M561.618,-287.673C577.677,-261.265 601.883,-221.459 618.052,-194.87"/>
<polygon fill="#a09236" stroke="#a09236" points="561.594,-287.711 552.554,-293.918 558.996,-291.984 556.399,-296.256 556.399,-296.256 556.399,-296.256 558.996,-291.984 560.243,-298.594 561.594,-287.711 561.594,-287.711"/>
<polygon fill="#a09236" stroke="#a09236" points="618.214,-194.604 627.255,-188.398 620.812,-190.332 623.41,-186.06 623.41,-186.06 623.41,-186.06 620.812,-190.332 619.565,-183.721 618.214,-194.604 618.214,-194.604"/>
</g>
<!-- AwsAccountAttribute -->
<g id="node22" class="node"><title>AwsAccountAttribute</title>
<ellipse fill="none" stroke="black" cx="725" cy="-93" rx="96.1665" ry="19.0919"/>
<text text-anchor="middle" x="725" y="-89.9" font-family="Times Roman,serif" font-size="14.00">AwsAccountAttribute</text>
</g>
<!-- AwsAccount&#45;&gt;AwsAccountAttribute -->
<g id="edge34" class="edge"><title>AwsAccount&#45;&gt;AwsAccountAttribute</title>
<path fill="none" stroke="#b0f269" d="M581.401,-294.018C616.898,-271.693 669.818,-233.125 700,-186 712.325,-166.756 718.616,-141.549 721.802,-122.233"/>
<ellipse fill="none" stroke="#b0f269" cx="577.947" cy="-296.158" rx="4.00002" ry="4.00002"/>
<polygon fill="#b0f269" stroke="#b0f269" points="721.825,-122.078 727.725,-112.834 722.548,-117.13 723.272,-112.183 723.272,-112.183 723.272,-112.183 722.548,-117.13 718.819,-111.532 721.825,-122.078 721.825,-122.078"/>
</g>
<!-- AwsElasticIp -->
<g id="node25" class="node"><title>AwsElasticIp</title>
<ellipse fill="none" stroke="black" cx="548" cy="-93" rx="62.9325" ry="19.0919"/>
<text text-anchor="middle" x="548" y="-89.9" font-family="Times Roman,serif" font-size="14.00">AwsElasticIp</text>
</g>
<!-- AwsAccount&#45;&gt;AwsElasticIp -->
<g id="edge36" class="edge"><title>AwsAccount&#45;&gt;AwsElasticIp</title>
<path fill="none" stroke="#68a4e4" d="M545.372,-287.435C545.942,-245.319 547.023,-165.311 547.605,-122.223"/>
<ellipse fill="none" stroke="#68a4e4" cx="545.315" cy="-291.688" rx="4" ry="4"/>
<polygon fill="#68a4e4" stroke="#68a4e4" points="547.607,-122.109 552.241,-112.171 547.674,-117.11 547.742,-112.11 547.742,-112.11 547.742,-112.11 547.674,-117.11 543.242,-112.049 547.607,-122.109 547.607,-122.109"/>
</g>
<!-- AwsRegion&#45;&gt;AwsAccountAttribute -->
<g id="edge38" class="edge"><title>AwsRegion&#45;&gt;AwsAccountAttribute</title>
<path fill="none" stroke="#71266e" d="M663.189,-143.822C673.175,-135.612 684.45,-126.341 694.611,-117.987"/>
<ellipse fill="none" stroke="#71266e" cx="659.876" cy="-146.546" rx="4.00002" ry="4.00002"/>
<polygon fill="#71266e" stroke="#71266e" points="694.75,-117.872 705.332,-114.997 698.612,-114.697 702.474,-111.521 702.474,-111.521 702.474,-111.521 698.612,-114.697 699.616,-108.045 694.75,-117.872 694.75,-117.872"/>
</g>
<!-- AwsRegion&#45;&gt;AwsElasticIp -->
<g id="edge40" class="edge"><title>AwsRegion&#45;&gt;AwsElasticIp</title>
<path fill="none" stroke="#f8d4f7" d="M607.654,-143.74C597.848,-135.399 586.765,-125.973 576.836,-117.528"/>
<ellipse fill="none" stroke="#f8d4f7" cx="610.893" cy="-146.495" rx="4.00002" ry="4.00002"/>
<polygon fill="#f8d4f7" stroke="#f8d4f7" points="576.785,-117.484 572.083,-107.577 572.976,-114.244 569.168,-111.005 569.168,-111.005 569.168,-111.005 572.976,-114.244 566.252,-114.433 576.785,-117.484 576.785,-117.484"/>
</g>
<!-- EbsSnapshot&#45;&gt;EbsSnapshotTag -->
<g id="edge42" class="edge"><title>EbsSnapshot&#45;&gt;EbsSnapshotTag</title>
<path fill="none" stroke="#01dcc5" d="M75,-65.8489C75,-60.126 75,-54.064 75,-48.2671"/>
<ellipse fill="none" stroke="#01dcc5" cx="75" cy="-69.9432" rx="4" ry="4"/>
<polygon fill="#01dcc5" stroke="#01dcc5" points="75.0001,-48.2495 79.5,-38.2494 75,-43.2495 75,-38.2495 75,-38.2495 75,-38.2495 75,-43.2495 70.5,-38.2495 75.0001,-48.2495 75.0001,-48.2495"/>
</g>
<!-- AwsVpcTag -->
<g id="node23" class="node"><title>AwsVpcTag</title>
<ellipse fill="none" stroke="black" cx="1613" cy="-491" rx="60.1041" ry="19.0919"/>
<text text-anchor="middle" x="1613" y="-487.9" font-family="Times Roman,serif" font-size="14.00">AwsVpcTag</text>
</g>
<!-- Host&#45;&gt;Instance -->
<g id="edge44" class="edge"><title>Host&#45;&gt;Instance</title>
<path fill="none" stroke="#598f79" d="M470.459,-362.111C463.949,-335.347 454.016,-294.509 447.515,-267.783"/>
<ellipse fill="none" stroke="#598f79" cx="471.422" cy="-366.068" rx="4.00001" ry="4.00001"/>
<ellipse fill="#598f79" stroke="#598f79" cx="446.56" cy="-263.859" rx="4.00001" ry="4.00001"/>
</g>
<!-- Host&#45;&gt;AwsAccount -->
<g id="edge46" class="edge"><title>Host&#45;&gt;AwsAccount</title>
<path fill="none" stroke="#66747b" d="M497.592,-366.591C505.427,-358.065 514.393,-348.308 522.404,-339.59"/>
<ellipse fill="none" stroke="#66747b" cx="494.798" cy="-369.632" rx="4.00002" ry="4.00002"/>
<ellipse fill="#66747b" stroke="#66747b" cx="525.332" cy="-336.404" rx="4.00002" ry="4.00002"/>
</g>
</g>
</svg>
